<svg xmlns="http://www.w3.org/2000/svg" viewBox="0 0 1200 760" fill="none">
<defs><linearGradient id="bg" x2="1" y2="1"><stop stop-color="#171326"/><stop offset=".55" stop-color="#5a1836"/><stop offset="1" stop-color="#f34c4d"/></linearGradient><radialGradient id="light"><stop stop-color="#ffc54b" stop-opacity=".85"/><stop offset="1" stop-color="#ff8250" stop-opacity="0"/></radialGradient></defs>
<path fill="url(#bg)" d="M0 0h1200v760H0z"/><ellipse cx="880" cy="230" rx="450" ry="300" fill="url(#light)"/><path d="M0 567c167-112 297-139 432-86s218 21 324-55 245-54 444 57v277H0z" fill="#111623" opacity=".72"/><path d="M105 499c145-194 250-243 389-236 157 8 234 122 367 119 101-2 161-47 234-120" stroke="#ffb84c" stroke-width="7" stroke-linecap="round" stroke-dasharray="2 22" opacity=".7"/>
<g><circle cx="356" cy="360" r="78" fill="#ff4e70"/><circle cx="356" cy="330" r="25" fill="#fff2d8"/><path d="M302 425c8-44 26-68 54-68s47 24 55 68" fill="#fff2d8"/><circle cx="600" cy="324" r="88" fill="#ffbd4b"/><circle cx="600" cy="291" r="27" fill="#282039"/><path d="M540 389c9-48 29-73 60-73s52 25 61 73" fill="#282039"/><circle cx="838" cy="379" r="72" fill="#e84372"/><circle cx="838" cy="351" r="23" fill="#fff2d8"/><path d="M788 439c8-41 25-62 50-62s43 21 51 62" fill="#fff2d8"/></g>
<g stroke="#fff" stroke-linecap="round" stroke-width="5" opacity=".7"><path d="m185 254 12 28 28 12-28 12-12 28-12-28-28-12 28-12z"/><path d="m1010 285 9 20 20 9-20 9-9 20-9-20-20-9 20-9z"/></g>
</svg>
